<svg width="22" height="22" viewBox="0 0 22 22" fill="none" xmlns="http://www.w3.org/2000/svg">
<path d="M14.7516 14.3348H10.1664" stroke="#A7A7A7" stroke-width="1.5" stroke-linecap="round" stroke-linejoin="round"/>
<path d="M7.24851 14.2306C7.19095 14.2306 7.1443 14.2773 7.1443 14.3348C7.1443 14.3924 7.19095 14.439 7.24851 14.439C7.30606 14.439 7.35272 14.3924 7.35272 14.3348C7.35272 14.2773 7.30606 14.2306 7.24851 14.2306" stroke="#A7A7A7" stroke-width="1.5" stroke-linecap="round" stroke-linejoin="round"/>
<path d="M14.7516 11.0001H10.1664" stroke="#A7A7A7" stroke-width="1.5" stroke-linecap="round" stroke-linejoin="round"/>
<path d="M7.24851 3.49683V5.99787" stroke="#A7A7A7" stroke-width="1.5" stroke-linecap="round" stroke-linejoin="round"/>
<path d="M14.7516 3.49683V5.99787" stroke="#A7A7A7" stroke-width="1.5" stroke-linecap="round" stroke-linejoin="round"/>
<rect x="3.49695" y="4.74731" width="15.0062" height="13.7557" rx="3" stroke="#A7A7A7" stroke-width="1.5" stroke-linecap="round" stroke-linejoin="round"/>
<path d="M7.24851 10.8959C7.19095 10.8959 7.1443 10.9425 7.1443 11.0001C7.1443 11.0576 7.19095 11.1043 7.24851 11.1043C7.30606 11.1043 7.35272 11.0576 7.35272 11.0001C7.35272 10.9425 7.30606 10.8959 7.24851 10.8959" stroke="#A7A7A7" stroke-width="1.5" stroke-linecap="round" stroke-linejoin="round"/>
</svg>
