<svg width="24" height="24" viewBox="0 0 24 24" fill="none" xmlns="http://www.w3.org/2000/svg">
<path d="M12 4C7.58214 4 4 7.58214 4 12C4 16.4179 7.58214 20 12 20C16.4179 20 20 16.4179 20 12C20 7.58214 16.4179 4 12 4ZM12 18.6429C8.33214 18.6429 5.35714 15.6679 5.35714 12C5.35714 8.33214 8.33214 5.35714 12 5.35714C15.6679 5.35714 18.6429 8.33214 18.6429 12C18.6429 15.6679 15.6679 18.6429 12 18.6429Z" fill="#DB0000"/>
<path d="M11 8.85714C11 9.08447 11.1054 9.30249 11.2929 9.46323C11.4804 9.62398 11.7348 9.71429 12 9.71429C12.2652 9.71429 12.5196 9.62398 12.7071 9.46323C12.8946 9.30249 13 9.08447 13 8.85714C13 8.62981 12.8946 8.4118 12.7071 8.25105C12.5196 8.09031 12.2652 8 12 8C11.7348 8 11.4804 8.09031 11.2929 8.25105C11.1054 8.4118 11 8.62981 11 8.85714ZM12.5 10.8571H11.5C11.4083 10.8571 11.3333 10.9214 11.3333 11V15.8571C11.3333 15.9357 11.4083 16 11.5 16H12.5C12.5917 16 12.6667 15.9357 12.6667 15.8571V11C12.6667 10.9214 12.5917 10.8571 12.5 10.8571Z" fill="#DB0000"/>
</svg>
