<svg width="120" height="17" viewBox="0 0 120 17" fill="none" xmlns="http://www.w3.org/2000/svg">
<path d="M6.18001 1.01045H0.0128825V16H2.79666V11.6744H6.18001C10.1201 11.6744 12.5613 9.64015 12.5613 6.34245C12.5613 3.02333 10.1201 1.01045 6.18001 1.01045ZM6.05153 9.31894H2.79666V3.36595H6.05153C8.49269 3.36595 9.75609 4.45805 9.75609 6.34245C9.75609 8.22685 8.49269 9.31894 6.05153 9.31894ZM31.1445 16L27.6969 11.0749C29.7312 10.2826 30.8875 8.61229 30.8875 6.34245C30.8875 3.02333 28.4464 1.01045 24.5062 1.01045H18.3391V16H21.1229V11.6316H24.5062C24.699 11.6316 24.8917 11.6316 25.0844 11.6102L28.1466 16H31.1445ZM28.0823 6.34245C28.0823 8.22685 26.8189 9.34036 24.3778 9.34036H21.1229V3.36595H24.3778C26.8189 3.36595 28.0823 4.45805 28.0823 6.34245ZM36.9999 16H39.7837V1.01045H36.9999V16ZM63.2388 16L63.2174 1.01045H60.9262L55.0802 10.9464L49.1272 1.01045H46.836V16H49.4913V6.19255L54.4164 14.2869H55.6584L60.5835 6.06407L60.605 16H63.2388ZM76.7311 16.2141C80.8211 16.2141 83.2837 13.8372 83.2837 9.46884V1.01045H80.5427V9.36177C80.5427 12.4453 79.1723 13.773 76.7525 13.773C74.3328 13.773 72.9409 12.4453 72.9409 9.36177V1.01045H70.1571V9.46884C70.1571 13.8372 72.6197 16.2141 76.7311 16.2141ZM94.827 16.2141C98.9384 16.2141 100.887 14.1584 100.887 11.7601C100.887 6.25679 92.0004 8.33392 92.0004 5.14328C92.0004 4.00836 92.9426 3.10899 95.2552 3.10899C96.5615 3.10899 98.039 3.49443 99.3881 4.28674L100.266 2.12396C98.9598 1.26741 97.0754 0.796313 95.2767 0.796313C91.1652 0.796313 89.238 2.85202 89.238 5.27176C89.238 10.8393 98.1461 8.71936 98.1461 11.9528C98.1461 13.0663 97.1611 13.9015 94.827 13.9015C92.9854 13.9015 91.0796 13.2162 89.8804 12.2526L88.9168 14.4154C90.1588 15.4861 92.4929 16.2141 94.827 16.2141ZM117.181 1.01045V7.19899H109.429V1.01045H106.645V16H109.429V9.57591H117.181V16H119.965V1.01045H117.181Z" fill="black"/>
</svg>
