<svg width="120" height="17" viewBox="0 0 120 17" fill="none" xmlns="http://www.w3.org/2000/svg">
<path d="M6.18001 1.01045C7.47911 1.01045 8.60689 1.22459 9.56337 1.65286C10.5341 2.08113 11.2765 2.69499 11.7904 3.49443C12.3043 4.29387 12.5613 5.24321 12.5613 6.34245C12.5613 7.4274 12.3043 8.37674 11.7904 9.19046C11.2765 9.9899 10.5341 10.6038 9.56337 11.032C8.60689 11.4603 7.47911 11.6744 6.18001 11.6744H2.79666V16H0.0128825V1.01045H6.18001ZM6.05153 9.31894C7.26497 9.31894 8.18576 9.06198 8.81389 8.54805C9.44202 8.03412 9.75609 7.29892 9.75609 6.34245C9.75609 5.38597 9.44202 4.65077 8.81389 4.13684C8.18576 3.62291 7.26497 3.36595 6.05153 3.36595H2.79666V9.31894H6.05153ZM28.1466 16L25.0844 11.6102C24.9559 11.6245 24.7632 11.6316 24.5062 11.6316H21.1229V16H18.3391V1.01045H24.5062C25.8053 1.01045 26.9331 1.22459 27.8896 1.65286C28.8604 2.08113 29.6027 2.69499 30.1166 3.49443C30.6305 4.29387 30.8875 5.24321 30.8875 6.34245C30.8875 7.47023 30.6091 8.44098 30.0524 9.2547C29.5099 10.0684 28.7247 10.6751 27.6969 11.0749L31.1445 16H28.1466ZM28.0823 6.34245C28.0823 5.38597 27.7683 4.65077 27.1401 4.13684C26.512 3.62291 25.5912 3.36595 24.3778 3.36595H21.1229V9.34036H24.3778C25.5912 9.34036 26.512 9.08339 27.1401 8.56947C27.7683 8.04126 28.0823 7.29892 28.0823 6.34245ZM36.9999 1.01045H39.7837V16H36.9999V1.01045ZM60.605 16L60.5835 6.06407L55.6584 14.2869H54.4164L49.4913 6.19255V16H46.836V1.01045H49.1272L55.0802 10.9464L60.9262 1.01045H63.2174L63.2388 16H60.605ZM76.7311 16.2141C74.6611 16.2141 73.048 15.636 71.8916 14.4796C70.7353 13.309 70.1571 11.6388 70.1571 9.46884V1.01045H72.9409V9.36177C72.9409 12.3026 74.2114 13.773 76.7525 13.773C79.2793 13.773 80.5427 12.3026 80.5427 9.36177V1.01045H83.2837V9.46884C83.2837 11.6388 82.7055 13.309 81.5492 14.4796C80.4071 15.636 78.8011 16.2141 76.7311 16.2141ZM94.827 16.2141C93.6706 16.2141 92.55 16.05 91.465 15.7216C90.3943 15.3933 89.5449 14.9579 88.9168 14.4154L89.8804 12.2526C90.4943 12.738 91.2438 13.1377 92.1289 13.4518C93.0282 13.7516 93.9276 13.9015 94.827 13.9015C95.9405 13.9015 96.7685 13.723 97.311 13.3661C97.8677 13.0092 98.1461 12.5381 98.1461 11.9528C98.1461 11.5245 97.9891 11.1748 97.675 10.9036C97.3752 10.618 96.9897 10.3968 96.5186 10.2397C96.0475 10.0827 95.4051 9.90425 94.5914 9.70439C93.4494 9.43315 92.5214 9.16191 91.8076 8.89067C91.1081 8.61943 90.5014 8.1983 89.9875 7.62726C89.4878 7.04196 89.238 6.25679 89.238 5.27176C89.238 4.44377 89.4593 3.69429 89.9018 3.02333C90.3587 2.3381 91.0368 1.79562 91.9361 1.39589C92.8498 0.996173 93.9633 0.796313 95.2767 0.796313C96.1903 0.796313 97.0897 0.910519 97.9748 1.13893C98.8599 1.36734 99.6236 1.69569 100.266 2.12396L99.3881 4.28674C98.7314 3.90129 98.0462 3.60864 97.3324 3.40878C96.6186 3.20892 95.9262 3.10899 95.2552 3.10899C94.156 3.10899 93.3352 3.29457 92.7927 3.66574C92.2645 4.03691 92.0004 4.52942 92.0004 5.14328C92.0004 5.57156 92.1503 5.92131 92.4501 6.19255C92.7641 6.46379 93.1567 6.67793 93.6278 6.83496C94.0989 6.99199 94.7413 7.17044 95.555 7.3703C96.6685 7.62727 97.5822 7.8985 98.296 8.18402C99.0098 8.45526 99.6165 8.87639 100.116 9.44742C100.63 10.0185 100.887 10.7893 100.887 11.7601C100.887 12.5881 100.659 13.3376 100.202 14.0085C99.7592 14.6795 99.0811 15.2148 98.1675 15.6146C97.2539 16.0143 96.1403 16.2141 94.827 16.2141ZM119.965 1.01045V16H117.181V9.57591H109.429V16H106.645V1.01045H109.429V7.19899H117.181V1.01045H119.965Z" fill="white"/>
</svg>
